<svg width="27" height="27" viewBox="0 0 27 27" fill="none" xmlns="http://www.w3.org/2000/svg">
<path fill-rule="evenodd" clip-rule="evenodd" d="M17.7849 14.6059H14.2499V18.1359C14.2499 18.6534 13.8299 19.0734 13.3124 19.0734C12.7949 19.0734 12.3749 18.6534 12.3749 18.1359V14.6059H8.83992C8.32242 14.6059 7.90242 14.1859 7.90242 13.6684C7.90242 13.1509 8.32242 12.7309 8.83992 12.7309H12.3749V9.20082C12.3749 8.68332 12.7949 8.26332 13.3124 8.26332C13.8299 8.26332 14.2499 8.68332 14.2499 9.20082V12.7309H17.7849C18.3024 12.7309 18.7224 13.1509 18.7224 13.6684C18.7224 14.1859 18.3024 14.6059 17.7849 14.6059ZM13.3124 0.87207C3.86367 0.87207 0.516174 4.21957 0.516174 13.6684C0.516174 23.1171 3.86367 26.4646 13.3124 26.4646C22.7599 26.4646 26.1086 23.1171 26.1086 13.6684C26.1086 4.21957 22.7599 0.87207 13.3124 0.87207Z" fill="#40AA4A"/>
</svg>
