<svg width="16" height="15" viewBox="0 0 16 15" fill="none" xmlns="http://www.w3.org/2000/svg">
<path d="M5.02396 0.000121102C5.52796 0.0151231 6.01595 0.101253 6.48874 0.258635H6.53594C6.56794 0.273512 6.59194 0.289955 6.60794 0.304832C6.78474 0.360425 6.95194 0.423065 7.11194 0.509194L7.41594 0.642304C7.53593 0.704944 7.67993 0.82161 7.75993 0.869373C7.83993 0.91557 7.92793 0.963333 7.99993 1.01736C8.88872 0.352595 9.96791 -0.00758385 11.0799 0.000121102C11.5847 0.000121102 12.0887 0.0699329 12.5679 0.227315C15.5206 1.16691 16.5846 4.33805 15.6958 7.10986C15.1919 8.5263 14.3679 9.81903 13.2887 10.8753C11.7439 12.3395 10.0487 13.6393 8.22393 14.759L8.02393 14.8772L7.81593 14.7511C5.98475 13.6393 4.27997 12.3395 2.72078 10.8675C1.6488 9.8112 0.824005 8.5263 0.31201 7.10986C-0.591981 4.33805 0.472009 1.16691 3.45678 0.210872C3.68877 0.132573 3.92797 0.0777628 4.16797 0.047226H4.26397C4.48877 0.0151231 4.71196 0.000121102 4.93596 0.000121102H5.02396ZM12.1519 2.47452C11.8239 2.36411 11.4639 2.53716 11.3439 2.86602C11.2319 3.19487 11.4079 3.55505 11.7439 3.67172C12.2567 3.85964 12.5999 4.35371 12.5999 4.90103V4.9253C12.5847 5.1046 12.6399 5.27765 12.7519 5.41076C12.8639 5.54387 13.0319 5.62138 13.2079 5.63783C13.5359 5.62921 13.8159 5.37161 13.8399 5.04197V4.94879C13.8639 3.85181 13.1847 2.85819 12.1519 2.47452Z" fill="#40AA4A"/>
</svg>
