<svg width="24" height="25" viewBox="0 0 24 25" fill="none" xmlns="http://www.w3.org/2000/svg">
<path fill-rule="evenodd" clip-rule="evenodd" d="M15.4599 18.3155H8.54133C8.04876 18.3155 7.649 17.9155 7.649 17.4226C7.649 16.9298 8.04876 16.5298 8.54133 16.5298H15.4599C15.9524 16.5298 16.3522 16.9298 16.3522 17.4226C16.3522 17.9155 15.9524 18.3155 15.4599 18.3155ZM20.6246 5.54524C20.1927 5.16429 19.7014 4.73333 19.116 4.19167C18.8507 3.97738 18.5604 3.73214 18.2522 3.47262C16.5152 2.00714 14.1357 0 11.9667 0C9.82275 0 7.59665 1.89524 5.80844 3.41786C5.47768 3.69881 5.16834 3.9631 4.85305 4.21905C4.29862 4.73333 3.80725 5.16548 3.37418 5.54762C0.534205 8.04881 0 8.70476 0 14.5393C0 25 3.0232 25 12 25C20.9756 25 24 25 24 14.5393C24 8.70357 23.4658 8.04762 20.6246 5.54524Z" fill="#40AA4A"/>
</svg>
