<svg width="21" height="15" viewBox="0 0 21 15" fill="none" xmlns="http://www.w3.org/2000/svg">
<path d="M0.125 1.25C0.125 1.0428 0.20731 0.844086 0.353823 0.697573C0.500336 0.55106 0.69905 0.46875 0.90625 0.46875H18.0938C18.301 0.46875 18.4997 0.55106 18.6462 0.697573C18.7927 0.844086 18.875 1.0428 18.875 1.25C18.875 1.4572 18.7927 1.65591 18.6462 1.80243C18.4997 1.94894 18.301 2.03125 18.0938 2.03125H0.90625C0.69905 2.03125 0.500336 1.94894 0.353823 1.80243C0.20731 1.65591 0.125 1.4572 0.125 1.25ZM0.90625 8.28125H7.9375C8.1447 8.28125 8.34341 8.19894 8.48993 8.05243C8.63644 7.90591 8.71875 7.7072 8.71875 7.5C8.71875 7.2928 8.63644 7.09409 8.48993 6.94757C8.34341 6.80106 8.1447 6.71875 7.9375 6.71875H0.90625C0.69905 6.71875 0.500336 6.80106 0.353823 6.94757C0.20731 7.09409 0.125 7.2928 0.125 7.5C0.125 7.7072 0.20731 7.90591 0.353823 8.05243C0.500336 8.19894 0.69905 8.28125 0.90625 8.28125ZM9.5 12.9688H0.90625C0.69905 12.9688 0.500336 13.0511 0.353823 13.1976C0.20731 13.3441 0.125 13.5428 0.125 13.75C0.125 13.9572 0.20731 14.1559 0.353823 14.3024C0.500336 14.4489 0.69905 14.5312 0.90625 14.5312H9.5C9.7072 14.5312 9.90592 14.4489 10.0524 14.3024C10.1989 14.1559 10.2812 13.9572 10.2812 13.75C10.2812 13.5428 10.1989 13.3441 10.0524 13.1976C9.90592 13.0511 9.7072 12.9688 9.5 12.9688ZM20.209 14.3027C20.1364 14.3754 20.0503 14.433 19.9554 14.4723C19.8606 14.5116 19.7589 14.5319 19.6562 14.5319C19.5536 14.5319 19.4519 14.5116 19.3571 14.4723C19.2622 14.433 19.1761 14.3754 19.1035 14.3027L17.1172 12.3203C16.3094 12.8533 15.3326 13.0674 14.3759 12.9212C13.4193 12.775 12.551 12.2789 11.9392 11.529C11.3275 10.7792 11.0159 9.8289 11.0647 8.86239C11.1136 7.89588 11.5196 6.98192 12.2039 6.29762C12.8882 5.61332 13.8021 5.20739 14.7686 5.1585C15.7351 5.1096 16.6854 5.42121 17.4353 6.03296C18.1851 6.6447 18.6812 7.51302 18.8274 8.46966C18.9736 9.4263 18.7595 10.4032 18.2266 11.2109L20.209 13.1934C20.2822 13.266 20.3403 13.3524 20.38 13.4476C20.4197 13.5428 20.4401 13.6449 20.4401 13.748C20.4401 13.8512 20.4197 13.9533 20.38 14.0485C20.3403 14.1437 20.2822 14.2301 20.209 14.3027ZM14.9688 11.4062C15.4323 11.4062 15.8854 11.2688 16.2709 11.0113C16.6563 10.7537 16.9567 10.3877 17.1341 9.95941C17.3115 9.53115 17.3579 9.0599 17.2675 8.60526C17.177 8.15061 16.9538 7.733 16.626 7.40522C16.2983 7.07744 15.8806 6.85422 15.426 6.76378C14.9714 6.67335 14.5001 6.71976 14.0718 6.89716C13.6436 7.07455 13.2775 7.37496 13.02 7.76038C12.7625 8.14581 12.625 8.59895 12.625 9.0625C12.625 9.6841 12.8719 10.2802 13.3115 10.7198C13.751 11.1593 14.3471 11.4062 14.9688 11.4062Z" fill="#40AA4A"/>
</svg>
