<svg width="20" height="19" viewBox="0 0 20 19" fill="none" xmlns="http://www.w3.org/2000/svg">
<g filter="url(#filter0_d_45_105)">
<path d="M16.6344 1.0086C16.5599 0.949555 16.4728 0.908534 16.3798 0.888747C16.2868 0.86896 16.1905 0.870943 16.0984 0.894541L6.09844 3.39454C5.96336 3.42831 5.84342 3.50621 5.75765 3.6159C5.67188 3.72558 5.6252 3.86077 5.625 4.00001V12.6016C5.10357 12.2532 4.48065 12.089 3.85524 12.1353C3.22982 12.1815 2.6378 12.4354 2.17323 12.8566C1.70867 13.2779 1.39823 13.8423 1.29124 14.4603C1.18425 15.0782 1.28684 15.7142 1.58273 16.2671C1.87861 16.82 2.3508 17.2582 2.92427 17.512C3.49773 17.7658 4.13957 17.8206 4.74779 17.6678C5.35601 17.515 5.89571 17.1633 6.28113 16.6686C6.66655 16.1739 6.87558 15.5646 6.875 14.9375V7.61329L15.625 5.42579V10.1016C15.1036 9.75317 14.4806 9.58904 13.8552 9.63526C13.2298 9.68147 12.6378 9.93538 12.1732 10.3566C11.7087 10.7779 11.3982 11.3423 11.2912 11.9603C11.1842 12.5782 11.2868 13.2142 11.5827 13.7671C11.8786 14.32 12.3508 14.7582 12.9243 15.012C13.4977 15.2658 14.1396 15.3206 14.7478 15.1678C15.356 15.015 15.8957 14.6633 16.2811 14.1686C16.6666 13.6739 16.8756 13.0646 16.875 12.4375V1.50001C16.8748 1.40521 16.853 1.31171 16.8113 1.22658C16.7696 1.14144 16.7091 1.0669 16.6344 1.0086Z" fill="white"/>
</g>
<defs>
<filter id="filter0_d_45_105" x="-2.75" y="0.875244" width="23.625" height="24.8774" filterUnits="userSpaceOnUse" color-interpolation-filters="sRGB">
<feFlood flood-opacity="0" result="BackgroundImageFix"/>
<feColorMatrix in="SourceAlpha" type="matrix" values="0 0 0 0 0 0 0 0 0 0 0 0 0 0 0 0 0 0 127 0" result="hardAlpha"/>
<feOffset dy="4"/>
<feGaussianBlur stdDeviation="2"/>
<feComposite in2="hardAlpha" operator="out"/>
<feColorMatrix type="matrix" values="0 0 0 0 0 0 0 0 0 0 0 0 0 0 0 0 0 0 0.25 0"/>
<feBlend mode="normal" in2="BackgroundImageFix" result="effect1_dropShadow_45_105"/>
<feBlend mode="normal" in="SourceGraphic" in2="effect1_dropShadow_45_105" result="shape"/>
</filter>
</defs>
</svg>
