<svg width="18" height="20" viewBox="0 0 18 20" fill="none" xmlns="http://www.w3.org/2000/svg">
<path d="M16.92 3.53455H13.68V2.47418C13.68 1.81799 13.4145 1.18867 12.9419 0.724671C12.4693 0.260672 11.8283 0 11.16 0H6.84C6.17165 0 5.53068 0.260672 5.05809 0.724671C4.5855 1.18867 4.32 1.81799 4.32 2.47418V3.53455H1.08C0.793566 3.53455 0.518864 3.64626 0.316325 3.84512C0.113785 4.04398 0 4.31368 0 4.59491C0 4.87614 0.113785 5.14584 0.316325 5.3447C0.518864 5.54356 0.793566 5.65527 1.08 5.65527H1.44V17.6727C1.44 18.1414 1.62964 18.591 1.96721 18.9224C2.30477 19.2538 2.76261 19.44 3.24 19.44H14.76C15.2374 19.44 15.6952 19.2538 16.0328 18.9224C16.3704 18.591 16.56 18.1414 16.56 17.6727V5.65527H16.92C17.2064 5.65527 17.4811 5.54356 17.6837 5.3447C17.8862 5.14584 18 4.87614 18 4.59491C18 4.31368 17.8862 4.04398 17.6837 3.84512C17.4811 3.64626 17.2064 3.53455 16.92 3.53455ZM6.48 2.47418C6.48 2.38044 6.51793 2.29054 6.58544 2.22425C6.65295 2.15797 6.74452 2.12073 6.84 2.12073H11.16C11.2555 2.12073 11.347 2.15797 11.4146 2.22425C11.4821 2.29054 11.52 2.38044 11.52 2.47418V3.53455H6.48V2.47418ZM14.4 17.3193H3.6V5.65527H14.4V17.3193ZM7.92 8.48291V14.1382C7.92 14.4194 7.80622 14.6891 7.60368 14.888C7.40114 15.0868 7.12643 15.1985 6.84 15.1985C6.55357 15.1985 6.27886 15.0868 6.07632 14.888C5.87379 14.6891 5.76 14.4194 5.76 14.1382V8.48291C5.76 8.20168 5.87379 7.93198 6.07632 7.73312C6.27886 7.53426 6.55357 7.42255 6.84 7.42255C7.12643 7.42255 7.40114 7.53426 7.60368 7.73312C7.80622 7.93198 7.92 8.20168 7.92 8.48291ZM12.24 8.48291V14.1382C12.24 14.4194 12.1262 14.6891 11.9237 14.888C11.7211 15.0868 11.4464 15.1985 11.16 15.1985C10.8736 15.1985 10.5989 15.0868 10.3963 14.888C10.1938 14.6891 10.08 14.4194 10.08 14.1382V8.48291C10.08 8.20168 10.1938 7.93198 10.3963 7.73312C10.5989 7.53426 10.8736 7.42255 11.16 7.42255C11.4464 7.42255 11.7211 7.53426 11.9237 7.73312C12.1262 7.93198 12.24 8.20168 12.24 8.48291Z" fill="white"/>
</svg>
